<svg xmlns="http://www.w3.org/2000/svg" xmlns:xlink="http://www.w3.org/1999/xlink" width="500" zoomAndPan="magnify" viewBox="0 0 375 374.999991" height="500" preserveAspectRatio="xMidYMid meet" version="1.0"><defs><clipPath id="51193fe652"><path d="M 58.515625 8.664062 L 337.515625 8.664062 L 337.515625 366.414062 L 58.515625 366.414062 Z M 58.515625 8.664062 " clip-rule="nonzero"/></clipPath></defs><g clip-path="url(#51193fe652)"><path fill="#ef3914" d="M 125.238281 48.753906 C 144.273438 44.375 170.597656 45.027344 184.917969 50.859375 C 193.113281 35.371094 215.121094 11.148438 224.046875 12.71875 C 236.234375 24.90625 237.324219 63.625 237.324219 86.511719 C 254.648438 108.664062 249.410156 153.488281 224.539062 172.710938 C 225.800781 187.695312 249.753906 204.492188 262.574219 227.722656 C 279.097656 257.648438 278.308594 296.300781 275.964844 313.238281 C 286.003906 310.332031 294.859375 302.261719 300.125 289.230469 C 306.878906 272.515625 300.804688 253.578125 292.789062 229.878906 C 283.402344 202.113281 292.957031 167.847656 302.199219 158.609375 C 308.914062 151.894531 320.683594 142.253906 332.914062 152.1875 C 340.617188 158.445312 336.828125 171.835938 333.640625 175.261719 C 324.800781 184.761719 321.710938 186.527344 318.636719 200.078125 C 315.210938 215.183594 322.28125 227.429688 329.980469 252.878906 C 332.445312 261.03125 333.390625 293.9375 318.160156 314.019531 C 300.585938 337.1875 282.097656 340.363281 269.898438 341.101562 C 256.164062 353.605469 252 358.152344 224.191406 358.152344 C 214.65625 358.152344 191.269531 360.164062 184.667969 354.988281 C 179.121094 360.535156 173.535156 369.238281 162.050781 365.378906 C 155.578125 363.203125 155.535156 356.699219 155.011719 350.664062 C 152.941406 350.453125 151.539062 350.324219 149.234375 350.324219 C 145.304688 354.65625 135.960938 364.65625 129.589844 364.65625 C 119.832031 364.65625 113.628906 355.609375 120.039062 342.273438 C 106.808594 306.820312 98.136719 232.527344 109.789062 188.359375 C 45.117188 166.152344 53.847656 103.175781 70.789062 81.273438 C 72.792969 54.023438 74.683594 26.871094 88.765625 8.664062 C 101.15625 14.351562 108.21875 23.777344 125.238281 48.753906 Z M 125.238281 48.753906 " fill-opacity="1" fill-rule="nonzero"/></g><path fill="#f5f5f5" d="M 140.90625 105.078125 C 140.90625 105.816406 140.871094 106.550781 140.800781 107.285156 C 140.726562 108.019531 140.617188 108.75 140.476562 109.476562 C 140.332031 110.199219 140.152344 110.914062 139.9375 111.621094 C 139.722656 112.328125 139.476562 113.023438 139.191406 113.703125 C 138.910156 114.386719 138.59375 115.054688 138.246094 115.703125 C 137.898438 116.355469 137.519531 116.988281 137.109375 117.601562 C 136.699219 118.214844 136.257812 118.808594 135.789062 119.378906 C 135.324219 119.949219 134.828125 120.496094 134.304688 121.019531 C 133.78125 121.539062 133.238281 122.035156 132.664062 122.503906 C 132.09375 122.972656 131.503906 123.410156 130.890625 123.820312 C 130.273438 124.230469 129.640625 124.609375 128.992188 124.960938 C 128.339844 125.308594 127.671875 125.621094 126.992188 125.90625 C 126.308594 126.1875 125.613281 126.4375 124.90625 126.652344 C 124.203125 126.863281 123.484375 127.042969 122.761719 127.1875 C 122.039062 127.332031 121.308594 127.441406 120.574219 127.511719 C 119.839844 127.585938 119.101562 127.621094 118.363281 127.621094 C 117.625 127.621094 116.890625 127.585938 116.152344 127.511719 C 115.417969 127.441406 114.691406 127.332031 113.964844 127.1875 C 113.242188 127.042969 112.527344 126.863281 111.820312 126.652344 C 111.113281 126.4375 110.417969 126.1875 109.738281 125.90625 C 109.054688 125.621094 108.386719 125.308594 107.738281 124.960938 C 107.085938 124.609375 106.453125 124.230469 105.839844 123.820312 C 105.226562 123.410156 104.632812 122.972656 104.0625 122.503906 C 103.492188 122.035156 102.945312 121.539062 102.421875 121.019531 C 101.902344 120.496094 101.40625 119.949219 100.9375 119.378906 C 100.46875 118.808594 100.027344 118.214844 99.617188 117.601562 C 99.207031 116.988281 98.828125 116.355469 98.480469 115.703125 C 98.132812 115.054688 97.816406 114.386719 97.535156 113.703125 C 97.253906 113.023438 97.003906 112.328125 96.789062 111.621094 C 96.574219 110.914062 96.398438 110.199219 96.253906 109.476562 C 96.109375 108.75 96 108.019531 95.929688 107.285156 C 95.855469 106.550781 95.820312 105.816406 95.820312 105.078125 C 95.820312 104.339844 95.855469 103.601562 95.929688 102.867188 C 96 102.132812 96.109375 101.402344 96.253906 100.679688 C 96.398438 99.953125 96.574219 99.238281 96.789062 98.53125 C 97.003906 97.824219 97.253906 97.132812 97.535156 96.449219 C 97.816406 95.765625 98.132812 95.101562 98.480469 94.449219 C 98.828125 93.796875 99.207031 93.164062 99.617188 92.550781 C 100.027344 91.9375 100.46875 91.34375 100.9375 90.773438 C 101.40625 90.203125 101.902344 89.65625 102.421875 89.136719 C 102.945312 88.613281 103.492188 88.117188 104.0625 87.648438 C 104.632812 87.179688 105.226562 86.742188 105.839844 86.332031 C 106.453125 85.921875 107.085938 85.542969 107.738281 85.195312 C 108.386719 84.847656 109.054688 84.53125 109.738281 84.25 C 110.417969 83.964844 111.113281 83.71875 111.820312 83.503906 C 112.527344 83.289062 113.242188 83.109375 113.964844 82.964844 C 114.691406 82.820312 115.417969 82.714844 116.152344 82.640625 C 116.890625 82.570312 117.625 82.53125 118.363281 82.53125 C 119.101562 82.53125 119.839844 82.570312 120.574219 82.640625 C 121.308594 82.714844 122.039062 82.820312 122.761719 82.964844 C 123.484375 83.109375 124.203125 83.289062 124.90625 83.503906 C 125.613281 83.71875 126.308594 83.964844 126.992188 84.25 C 127.671875 84.53125 128.339844 84.847656 128.992188 85.195312 C 129.640625 85.542969 130.273438 85.921875 130.890625 86.332031 C 131.503906 86.742188 132.09375 87.179688 132.664062 87.648438 C 133.238281 88.117188 133.78125 88.613281 134.304688 89.136719 C 134.828125 89.65625 135.324219 90.203125 135.789062 90.773438 C 136.257812 91.34375 136.699219 91.9375 137.109375 92.550781 C 137.519531 93.164062 137.898438 93.796875 138.246094 94.449219 C 138.59375 95.101562 138.910156 95.765625 139.191406 96.449219 C 139.476562 97.132812 139.722656 97.824219 139.9375 98.53125 C 140.152344 99.238281 140.332031 99.953125 140.476562 100.679688 C 140.617188 101.402344 140.726562 102.132812 140.800781 102.867188 C 140.871094 103.601562 140.90625 104.339844 140.90625 105.078125 Z M 140.90625 105.078125 " fill-opacity="1" fill-rule="nonzero"/><path fill="#ef3914" d="M 135.511719 105.078125 C 135.511719 105.902344 135.429688 106.722656 135.269531 107.53125 C 135.109375 108.34375 134.871094 109.128906 134.554688 109.890625 C 134.238281 110.65625 133.851562 111.378906 133.390625 112.066406 C 132.933594 112.753906 132.410156 113.390625 131.824219 113.972656 C 131.242188 114.558594 130.605469 115.078125 129.917969 115.539062 C 129.230469 115.996094 128.507812 116.386719 127.742188 116.703125 C 126.980469 117.019531 126.195312 117.257812 125.382812 117.417969 C 124.574219 117.578125 123.753906 117.660156 122.929688 117.660156 C 122.101562 117.660156 121.285156 117.578125 120.472656 117.417969 C 119.664062 117.257812 118.878906 117.019531 118.113281 116.703125 C 117.351562 116.386719 116.625 115.996094 115.9375 115.539062 C 115.25 115.078125 114.617188 114.558594 114.03125 113.972656 C 113.449219 113.390625 112.925781 112.753906 112.46875 112.066406 C 112.007812 111.378906 111.621094 110.65625 111.304688 109.890625 C 110.988281 109.128906 110.75 108.34375 110.589844 107.53125 C 110.425781 106.722656 110.347656 105.902344 110.347656 105.078125 C 110.347656 104.25 110.425781 103.433594 110.589844 102.621094 C 110.75 101.8125 110.988281 101.023438 111.304688 100.261719 C 111.621094 99.5 112.007812 98.773438 112.46875 98.085938 C 112.925781 97.398438 113.449219 96.765625 114.03125 96.179688 C 114.617188 95.59375 115.25 95.074219 115.9375 94.613281 C 116.625 94.15625 117.351562 93.769531 118.113281 93.453125 C 118.878906 93.136719 119.664062 92.898438 120.472656 92.734375 C 121.285156 92.574219 122.101562 92.496094 122.929688 92.496094 C 123.753906 92.496094 124.574219 92.574219 125.382812 92.734375 C 126.195312 92.898438 126.980469 93.136719 127.742188 93.453125 C 128.507812 93.769531 129.230469 94.15625 129.917969 94.613281 C 130.605469 95.074219 131.242188 95.59375 131.824219 96.179688 C 132.410156 96.765625 132.933594 97.398438 133.390625 98.085938 C 133.851562 98.773438 134.238281 99.5 134.554688 100.261719 C 134.871094 101.023438 135.109375 101.8125 135.269531 102.621094 C 135.429688 103.433594 135.511719 104.25 135.511719 105.078125 Z M 135.511719 105.078125 " fill-opacity="1" fill-rule="nonzero"/><path fill="#f5f5f5" d="M 224.785156 107.015625 C 224.785156 107.753906 224.746094 108.492188 224.675781 109.226562 C 224.601562 109.960938 224.492188 110.691406 224.351562 111.414062 C 224.207031 112.136719 224.027344 112.855469 223.8125 113.558594 C 223.597656 114.265625 223.351562 114.960938 223.066406 115.644531 C 222.785156 116.324219 222.46875 116.992188 222.121094 117.644531 C 221.773438 118.292969 221.394531 118.925781 220.984375 119.539062 C 220.574219 120.15625 220.132812 120.746094 219.664062 121.316406 C 219.199219 121.886719 218.703125 122.433594 218.179688 122.957031 C 217.65625 123.480469 217.113281 123.972656 216.539062 124.441406 C 215.96875 124.910156 215.378906 125.351562 214.765625 125.761719 C 214.148438 126.171875 213.515625 126.550781 212.867188 126.898438 C 212.214844 127.246094 211.546875 127.5625 210.867188 127.84375 C 210.183594 128.125 209.488281 128.375 208.78125 128.589844 C 208.078125 128.804688 207.359375 128.984375 206.636719 129.128906 C 205.914062 129.269531 205.183594 129.378906 204.449219 129.453125 C 203.714844 129.523438 202.976562 129.558594 202.238281 129.558594 C 201.5 129.558594 200.765625 129.523438 200.027344 129.453125 C 199.292969 129.378906 198.566406 129.269531 197.839844 129.128906 C 197.117188 128.984375 196.402344 128.804688 195.695312 128.589844 C 194.988281 128.375 194.292969 128.125 193.613281 127.84375 C 192.929688 127.5625 192.261719 127.246094 191.613281 126.898438 C 190.960938 126.550781 190.328125 126.171875 189.714844 125.761719 C 189.101562 125.351562 188.507812 124.910156 187.9375 124.441406 C 187.367188 123.972656 186.820312 123.480469 186.296875 122.957031 C 185.777344 122.433594 185.28125 121.886719 184.8125 121.316406 C 184.34375 120.746094 183.902344 120.15625 183.492188 119.539062 C 183.082031 118.925781 182.703125 118.292969 182.355469 117.644531 C 182.007812 116.992188 181.691406 116.324219 181.410156 115.644531 C 181.128906 114.960938 180.878906 114.265625 180.664062 113.558594 C 180.449219 112.855469 180.273438 112.136719 180.128906 111.414062 C 179.984375 110.691406 179.875 109.960938 179.804688 109.226562 C 179.730469 108.492188 179.695312 107.753906 179.695312 107.015625 C 179.695312 106.277344 179.730469 105.539062 179.804688 104.804688 C 179.875 104.070312 179.984375 103.34375 180.128906 102.617188 C 180.273438 101.894531 180.449219 101.179688 180.664062 100.472656 C 180.878906 99.765625 181.128906 99.070312 181.410156 98.386719 C 181.691406 97.707031 182.007812 97.039062 182.355469 96.386719 C 182.703125 95.738281 183.082031 95.105469 183.492188 94.492188 C 183.902344 93.875 184.34375 93.285156 184.8125 92.714844 C 185.28125 92.144531 185.777344 91.597656 186.296875 91.074219 C 186.820312 90.550781 187.367188 90.058594 187.9375 89.589844 C 188.507812 89.121094 189.101562 88.679688 189.714844 88.269531 C 190.328125 87.859375 190.960938 87.480469 191.613281 87.132812 C 192.261719 86.785156 192.929688 86.46875 193.613281 86.1875 C 194.292969 85.90625 194.988281 85.65625 195.695312 85.441406 C 196.402344 85.226562 197.117188 85.046875 197.839844 84.90625 C 198.566406 84.761719 199.292969 84.652344 200.027344 84.578125 C 200.765625 84.507812 201.5 84.472656 202.238281 84.472656 C 202.976562 84.472656 203.714844 84.507812 204.449219 84.578125 C 205.183594 84.652344 205.914062 84.761719 206.636719 84.90625 C 207.359375 85.046875 208.078125 85.226562 208.78125 85.441406 C 209.488281 85.65625 210.183594 85.90625 210.867188 86.1875 C 211.546875 86.46875 212.214844 86.785156 212.867188 87.132812 C 213.515625 87.480469 214.148438 87.859375 214.765625 88.269531 C 215.378906 88.679688 215.96875 89.121094 216.539062 89.589844 C 217.113281 90.058594 217.65625 90.550781 218.179688 91.074219 C 218.703125 91.597656 219.199219 92.144531 219.664062 92.714844 C 220.132812 93.285156 220.574219 93.875 220.984375 94.492188 C 221.394531 95.105469 221.773438 95.738281 222.121094 96.386719 C 222.46875 97.039062 222.785156 97.707031 223.066406 98.386719 C 223.351562 99.070312 223.597656 99.765625 223.8125 100.472656 C 224.027344 101.179688 224.207031 101.894531 224.351562 102.617188 C 224.492188 103.34375 224.601562 104.070312 224.675781 104.804688 C 224.746094 105.539062 224.785156 106.277344 224.785156 107.015625 Z M 224.785156 107.015625 " fill-opacity="1" fill-rule="nonzero"/><path fill="#ef3914" d="M 210.164062 105.078125 C 210.164062 105.902344 210.082031 106.722656 209.921875 107.53125 C 209.761719 108.34375 209.523438 109.128906 209.207031 109.890625 C 208.890625 110.65625 208.503906 111.378906 208.042969 112.066406 C 207.585938 112.753906 207.0625 113.390625 206.480469 113.972656 C 205.894531 114.558594 205.257812 115.078125 204.570312 115.539062 C 203.886719 115.996094 203.160156 116.386719 202.398438 116.703125 C 201.632812 117.019531 200.847656 117.257812 200.035156 117.417969 C 199.226562 117.578125 198.40625 117.660156 197.582031 117.660156 C 196.753906 117.660156 195.9375 117.578125 195.125 117.417969 C 194.316406 117.257812 193.53125 117.019531 192.765625 116.703125 C 192.003906 116.386719 191.277344 115.996094 190.589844 115.539062 C 189.902344 115.078125 189.269531 114.558594 188.683594 113.972656 C 188.101562 113.390625 187.578125 112.753906 187.121094 112.066406 C 186.660156 111.378906 186.273438 110.65625 185.957031 109.890625 C 185.640625 109.128906 185.402344 108.34375 185.242188 107.53125 C 185.078125 106.722656 185 105.902344 185 105.078125 C 185 104.25 185.078125 103.433594 185.242188 102.621094 C 185.402344 101.8125 185.640625 101.023438 185.957031 100.261719 C 186.273438 99.5 186.660156 98.773438 187.121094 98.085938 C 187.578125 97.398438 188.101562 96.765625 188.683594 96.179688 C 189.269531 95.59375 189.902344 95.074219 190.589844 94.613281 C 191.277344 94.15625 192.003906 93.769531 192.765625 93.453125 C 193.53125 93.136719 194.316406 92.898438 195.125 92.734375 C 195.9375 92.574219 196.753906 92.496094 197.582031 92.496094 C 198.40625 92.496094 199.226562 92.574219 200.035156 92.734375 C 200.847656 92.898438 201.632812 93.136719 202.398438 93.453125 C 203.160156 93.769531 203.886719 94.15625 204.570312 94.613281 C 205.257812 95.074219 205.894531 95.59375 206.480469 96.179688 C 207.0625 96.765625 207.585938 97.398438 208.042969 98.085938 C 208.503906 98.773438 208.890625 99.5 209.207031 100.261719 C 209.523438 101.023438 209.761719 101.8125 209.921875 102.621094 C 210.082031 103.433594 210.164062 104.25 210.164062 105.078125 Z M 210.164062 105.078125 " fill-opacity="1" fill-rule="nonzero"/><path fill="#f5f5f5" d="M 160.105469 123.457031 L 165.664062 116.582031 C 165.941406 116.234375 165.695312 115.722656 165.253906 115.722656 L 154.132812 115.722656 C 153.691406 115.722656 153.445312 116.238281 153.722656 116.582031 L 159.28125 123.457031 C 159.492188 123.71875 159.890625 123.71875 160.105469 123.457031 Z M 160.105469 123.457031 " fill-opacity="1" fill-rule="nonzero"/></svg>